<mxfile host="app.diagrams.net" modified="2023-06-30T01:43:00.386Z" agent="Mozilla/5.0 (Macintosh; Intel Mac OS X 10_15_7) AppleWebKit/605.1.15 (KHTML, like Gecko) Version/16.3 Safari/605.1.15" etag="dTSlGTzvb2p5RBMO-NpU" version="21.3.8" type="google">
  <diagram name="Page-1" id="hCBrN9F9kg9yELBUgHz0">
    <mxGraphModel grid="0" page="0" gridSize="10" guides="1" tooltips="1" connect="1" arrows="1" fold="1" pageScale="1" pageWidth="850" pageHeight="1100" math="0" shadow="0">
      <root>
        <mxCell id="0" />
        <mxCell id="1" parent="0" />
        <mxCell id="jCh2vAqL-qauHgvOBUfU-2" value="Assistive Technology" style="swimlane;fontStyle=1;align=center;verticalAlign=top;childLayout=stackLayout;horizontal=1;startSize=26;horizontalStack=0;resizeParent=1;resizeParentMax=0;resizeLast=0;collapsible=1;marginBottom=0;whiteSpace=wrap;html=1;fontSize=16;" vertex="1" parent="1">
          <mxGeometry x="236" y="-157" width="249" height="374" as="geometry" />
        </mxCell>
        <mxCell id="jCh2vAqL-qauHgvOBUfU-3" value="&lt;b&gt;aids&lt;/b&gt;: wheelchairs, crutches, walker, scooters&lt;br&gt;&lt;b&gt;visual tools&lt;/b&gt;: braille reader, tactile maps, magnification software&lt;br&gt;&lt;b&gt;hearing aids:&lt;/b&gt;&amp;nbsp;cochlear implants, assistive listening devices, captioning systems&lt;br&gt;&lt;b&gt;adaptive tools:&lt;/b&gt;&amp;nbsp;personalized learning software, speech-to-text tools, alternative input methods, multisensory learning resources" style="text;strokeColor=none;fillColor=none;align=left;verticalAlign=top;spacingLeft=4;spacingRight=4;overflow=hidden;rotatable=0;points=[[0,0.5],[1,0.5]];portConstraint=eastwest;whiteSpace=wrap;html=1;fontSize=16;" vertex="1" parent="jCh2vAqL-qauHgvOBUfU-2">
          <mxGeometry y="26" width="249" height="248" as="geometry" />
        </mxCell>
        <mxCell id="jCh2vAqL-qauHgvOBUfU-4" value="" style="line;strokeWidth=1;fillColor=none;align=left;verticalAlign=middle;spacingTop=-1;spacingLeft=3;spacingRight=3;rotatable=0;labelPosition=right;points=[];portConstraint=eastwest;strokeColor=inherit;fontSize=16;" vertex="1" parent="jCh2vAqL-qauHgvOBUfU-2">
          <mxGeometry y="274" width="249" height="8" as="geometry" />
        </mxCell>
        <mxCell id="jCh2vAqL-qauHgvOBUfU-5" value="+ getListOfAids()&lt;br&gt;+ getListOfVisualTools()&lt;br&gt;+ getListOfHearingAids()&lt;br&gt;+ getListOfAdaptiveTools()" style="text;strokeColor=none;fillColor=none;align=left;verticalAlign=top;spacingLeft=4;spacingRight=4;overflow=hidden;rotatable=0;points=[[0,0.5],[1,0.5]];portConstraint=eastwest;whiteSpace=wrap;html=1;fontSize=16;" vertex="1" parent="jCh2vAqL-qauHgvOBUfU-2">
          <mxGeometry y="282" width="249" height="92" as="geometry" />
        </mxCell>
        <mxCell id="jCh2vAqL-qauHgvOBUfU-7" value="Error Handling" style="swimlane;fontStyle=1;align=center;verticalAlign=top;childLayout=stackLayout;horizontal=1;startSize=26;horizontalStack=0;resizeParent=1;resizeParentMax=0;resizeLast=0;collapsible=1;marginBottom=0;whiteSpace=wrap;html=1;fontSize=16;" vertex="1" parent="1">
          <mxGeometry x="-272" y="206" width="404" height="253" as="geometry" />
        </mxCell>
        <mxCell id="jCh2vAqL-qauHgvOBUfU-8" value="+ &lt;b&gt;unsupportedFile&lt;/b&gt;: ArrayList&amp;lt;File&amp;gt;" style="text;strokeColor=none;fillColor=none;align=left;verticalAlign=top;spacingLeft=4;spacingRight=4;overflow=hidden;rotatable=0;points=[[0,0.5],[1,0.5]];portConstraint=eastwest;whiteSpace=wrap;html=1;fontSize=16;" vertex="1" parent="jCh2vAqL-qauHgvOBUfU-7">
          <mxGeometry y="26" width="404" height="26" as="geometry" />
        </mxCell>
        <mxCell id="jCh2vAqL-qauHgvOBUfU-9" value="" style="line;strokeWidth=1;fillColor=none;align=left;verticalAlign=middle;spacingTop=-1;spacingLeft=3;spacingRight=3;rotatable=0;labelPosition=right;points=[];portConstraint=eastwest;strokeColor=inherit;fontSize=16;" vertex="1" parent="jCh2vAqL-qauHgvOBUfU-7">
          <mxGeometry y="52" width="404" height="8" as="geometry" />
        </mxCell>
        <mxCell id="jCh2vAqL-qauHgvOBUfU-10" value="+ FileNotFound(file): errorMessage" style="text;strokeColor=none;fillColor=none;align=left;verticalAlign=top;spacingLeft=4;spacingRight=4;overflow=hidden;rotatable=0;points=[[0,0.5],[1,0.5]];portConstraint=eastwest;whiteSpace=wrap;html=1;fontSize=16;" vertex="1" parent="jCh2vAqL-qauHgvOBUfU-7">
          <mxGeometry y="60" width="404" height="193" as="geometry" />
        </mxCell>
        <mxCell id="jCh2vAqL-qauHgvOBUfU-11" value="Screenreader" style="swimlane;fontStyle=1;align=center;verticalAlign=top;childLayout=stackLayout;horizontal=1;startSize=26;horizontalStack=0;resizeParent=1;resizeParentMax=0;resizeLast=0;collapsible=1;marginBottom=0;whiteSpace=wrap;html=1;fontSize=16;" vertex="1" parent="1">
          <mxGeometry x="255" y="339" width="238" height="179" as="geometry" />
        </mxCell>
        <mxCell id="jCh2vAqL-qauHgvOBUfU-13" value="" style="line;strokeWidth=1;fillColor=none;align=left;verticalAlign=middle;spacingTop=-1;spacingLeft=3;spacingRight=3;rotatable=0;labelPosition=right;points=[];portConstraint=eastwest;strokeColor=inherit;fontSize=16;" vertex="1" parent="jCh2vAqL-qauHgvOBUfU-11">
          <mxGeometry y="26" width="238" height="8" as="geometry" />
        </mxCell>
        <mxCell id="jCh2vAqL-qauHgvOBUfU-12" value="+ type: JAWS, NVDA, voiceover, talkback, Narrator, ChromeVox" style="text;strokeColor=none;fillColor=none;align=left;verticalAlign=top;spacingLeft=4;spacingRight=4;overflow=hidden;rotatable=0;points=[[0,0.5],[1,0.5]];portConstraint=eastwest;whiteSpace=wrap;html=1;fontSize=16;" vertex="1" parent="jCh2vAqL-qauHgvOBUfU-11">
          <mxGeometry y="34" width="238" height="88" as="geometry" />
        </mxCell>
        <mxCell id="jCh2vAqL-qauHgvOBUfU-14" value="+personalizeScreenReaderTool()&lt;br&gt;+getAvailableScreanReaders()" style="text;strokeColor=none;fillColor=none;align=left;verticalAlign=top;spacingLeft=4;spacingRight=4;overflow=hidden;rotatable=0;points=[[0,0.5],[1,0.5]];portConstraint=eastwest;whiteSpace=wrap;html=1;fontSize=16;" vertex="1" parent="jCh2vAqL-qauHgvOBUfU-11">
          <mxGeometry y="122" width="238" height="57" as="geometry" />
        </mxCell>
        <mxCell id="jCh2vAqL-qauHgvOBUfU-15" style="edgeStyle=none;curved=1;rounded=0;orthogonalLoop=1;jettySize=auto;html=1;entryX=0.5;entryY=0;entryDx=0;entryDy=0;fontSize=12;startSize=8;endSize=8;" edge="1" parent="1" source="jCh2vAqL-qauHgvOBUfU-5" target="jCh2vAqL-qauHgvOBUfU-11">
          <mxGeometry relative="1" as="geometry" />
        </mxCell>
        <mxCell id="jCh2vAqL-qauHgvOBUfU-51" style="edgeStyle=none;curved=1;rounded=0;orthogonalLoop=1;jettySize=auto;html=1;entryX=0;entryY=0.5;entryDx=0;entryDy=0;fontSize=12;startSize=8;endSize=8;" edge="1" parent="1" source="jCh2vAqL-qauHgvOBUfU-16" target="jCh2vAqL-qauHgvOBUfU-48">
          <mxGeometry relative="1" as="geometry" />
        </mxCell>
        <mxCell id="jCh2vAqL-qauHgvOBUfU-16" value="&lt;b&gt;VisuallyImpaired&lt;/b&gt;" style="swimlane;fontStyle=0;childLayout=stackLayout;horizontal=1;startSize=26;fillColor=none;horizontalStack=0;resizeParent=1;resizeParentMax=0;resizeLast=0;collapsible=1;marginBottom=0;whiteSpace=wrap;html=1;fontSize=16;" vertex="1" parent="1">
          <mxGeometry x="-588" y="-198" width="262" height="189" as="geometry" />
        </mxCell>
        <mxCell id="jCh2vAqL-qauHgvOBUfU-17" value="+ &lt;b&gt;disabilityType:&lt;/b&gt; blind, low vision, deaf" style="text;strokeColor=none;fillColor=none;align=left;verticalAlign=top;spacingLeft=4;spacingRight=4;overflow=hidden;rotatable=0;points=[[0,0.5],[1,0.5]];portConstraint=eastwest;whiteSpace=wrap;html=1;fontSize=16;" vertex="1" parent="jCh2vAqL-qauHgvOBUfU-16">
          <mxGeometry y="26" width="262" height="50" as="geometry" />
        </mxCell>
        <mxCell id="jCh2vAqL-qauHgvOBUfU-19" value="method: getTypesOfDisabilities()&lt;br&gt;method: isBlind()&lt;br&gt;method: isLowVision()&lt;br&gt;method: isDeaf()" style="text;strokeColor=none;fillColor=none;align=left;verticalAlign=top;spacingLeft=4;spacingRight=4;overflow=hidden;rotatable=0;points=[[0,0.5],[1,0.5]];portConstraint=eastwest;whiteSpace=wrap;html=1;fontSize=16;" vertex="1" parent="jCh2vAqL-qauHgvOBUfU-16">
          <mxGeometry y="76" width="262" height="113" as="geometry" />
        </mxCell>
        <mxCell id="jCh2vAqL-qauHgvOBUfU-23" value="&lt;b&gt;unsupportedFile&lt;/b&gt;" style="swimlane;fontStyle=0;childLayout=stackLayout;horizontal=1;startSize=26;fillColor=none;horizontalStack=0;resizeParent=1;resizeParentMax=0;resizeLast=0;collapsible=1;marginBottom=0;whiteSpace=wrap;html=1;fontSize=16;" vertex="1" parent="1">
          <mxGeometry x="-709" y="130" width="257" height="214" as="geometry" />
        </mxCell>
        <mxCell id="jCh2vAqL-qauHgvOBUfU-24" value="&lt;b&gt;+ Picture&lt;/b&gt;: jpeg, png, gif" style="text;strokeColor=none;fillColor=none;align=left;verticalAlign=top;spacingLeft=4;spacingRight=4;overflow=hidden;rotatable=0;points=[[0,0.5],[1,0.5]];portConstraint=eastwest;whiteSpace=wrap;html=1;fontSize=16;" vertex="1" parent="jCh2vAqL-qauHgvOBUfU-23">
          <mxGeometry y="26" width="257" height="26" as="geometry" />
        </mxCell>
        <mxCell id="jCh2vAqL-qauHgvOBUfU-25" value="&lt;b&gt;+ LatexMath:&amp;nbsp;&lt;/b&gt;equation, matrix" style="text;strokeColor=none;fillColor=none;align=left;verticalAlign=top;spacingLeft=4;spacingRight=4;overflow=hidden;rotatable=0;points=[[0,0.5],[1,0.5]];portConstraint=eastwest;whiteSpace=wrap;html=1;fontSize=16;" vertex="1" parent="jCh2vAqL-qauHgvOBUfU-23">
          <mxGeometry y="52" width="257" height="26" as="geometry" />
        </mxCell>
        <mxCell id="jCh2vAqL-qauHgvOBUfU-26" value="+ &lt;b&gt;Multimedia&lt;/b&gt;: mpeg, wav&lt;br&gt;&lt;br&gt;+ getAvailableImageTypes()&lt;br&gt;+ getLatexMath()&lt;br&gt;+ getAvailableMultiMediaTypes()" style="text;strokeColor=none;fillColor=none;align=left;verticalAlign=top;spacingLeft=4;spacingRight=4;overflow=hidden;rotatable=0;points=[[0,0.5],[1,0.5]];portConstraint=eastwest;whiteSpace=wrap;html=1;fontSize=16;" vertex="1" parent="jCh2vAqL-qauHgvOBUfU-23">
          <mxGeometry y="78" width="257" height="136" as="geometry" />
        </mxCell>
        <mxCell id="jCh2vAqL-qauHgvOBUfU-32" style="edgeStyle=none;curved=1;rounded=0;orthogonalLoop=1;jettySize=auto;html=1;exitX=0;exitY=0.5;exitDx=0;exitDy=0;entryX=1.006;entryY=0.255;entryDx=0;entryDy=0;fontSize=12;startSize=8;endSize=8;entryPerimeter=0;" edge="1" parent="1" source="jCh2vAqL-qauHgvOBUfU-8" target="jCh2vAqL-qauHgvOBUfU-26">
          <mxGeometry relative="1" as="geometry" />
        </mxCell>
        <mxCell id="jCh2vAqL-qauHgvOBUfU-33" value="&lt;b&gt;ScreenReaderTechnology&lt;/b&gt;" style="swimlane;fontStyle=0;childLayout=stackLayout;horizontal=1;startSize=26;fillColor=none;horizontalStack=0;resizeParent=1;resizeParentMax=0;resizeLast=0;collapsible=1;marginBottom=0;whiteSpace=wrap;html=1;fontSize=16;" vertex="1" parent="1">
          <mxGeometry x="706" y="287" width="249" height="271" as="geometry" />
        </mxCell>
        <mxCell id="jCh2vAqL-qauHgvOBUfU-34" value="+ &lt;b&gt;software&lt;/b&gt;: JAWS, NVDA" style="text;strokeColor=none;fillColor=none;align=left;verticalAlign=top;spacingLeft=4;spacingRight=4;overflow=hidden;rotatable=0;points=[[0,0.5],[1,0.5]];portConstraint=eastwest;whiteSpace=wrap;html=1;fontSize=16;" vertex="1" parent="jCh2vAqL-qauHgvOBUfU-33">
          <mxGeometry y="26" width="249" height="26" as="geometry" />
        </mxCell>
        <mxCell id="jCh2vAqL-qauHgvOBUfU-35" value="+ NonVisual Desktop Access&lt;br&gt;+ &lt;b&gt;Magnification: zoomtext, windows magnifier&lt;/b&gt;&lt;br&gt;+ &lt;b&gt;LargePrint: &lt;/b&gt;zoomtext, magic, lunar&lt;br&gt;+ &lt;b&gt;TextToSpeech: &lt;/b&gt;MS word&lt;br&gt;&lt;br&gt;+ getSoftwareList()&lt;br&gt;+ getMagnificationDetails()&lt;br&gt;+ getLargePrint()&lt;br&gt;+ getTextToSpeech()" style="text;strokeColor=none;fillColor=none;align=left;verticalAlign=top;spacingLeft=4;spacingRight=4;overflow=hidden;rotatable=0;points=[[0,0.5],[1,0.5]];portConstraint=eastwest;whiteSpace=wrap;html=1;fontSize=16;" vertex="1" parent="jCh2vAqL-qauHgvOBUfU-33">
          <mxGeometry y="52" width="249" height="219" as="geometry" />
        </mxCell>
        <mxCell id="jCh2vAqL-qauHgvOBUfU-37" style="edgeStyle=none;curved=1;rounded=0;orthogonalLoop=1;jettySize=auto;html=1;fontSize=12;startSize=8;endSize=8;" edge="1" parent="1" source="jCh2vAqL-qauHgvOBUfU-12" target="jCh2vAqL-qauHgvOBUfU-33">
          <mxGeometry relative="1" as="geometry" />
        </mxCell>
        <mxCell id="jCh2vAqL-qauHgvOBUfU-45" style="edgeStyle=none;curved=1;rounded=0;orthogonalLoop=1;jettySize=auto;html=1;entryX=0.5;entryY=0;entryDx=0;entryDy=0;fontSize=12;startSize=8;endSize=8;" edge="1" parent="1" source="jCh2vAqL-qauHgvOBUfU-42" target="jCh2vAqL-qauHgvOBUfU-2">
          <mxGeometry relative="1" as="geometry" />
        </mxCell>
        <mxCell id="jCh2vAqL-qauHgvOBUfU-42" value="&lt;b&gt;GeorgiaTech&lt;/b&gt;" style="html=1;whiteSpace=wrap;fontSize=16;" vertex="1" parent="1">
          <mxGeometry x="314" y="-330" width="110" height="50" as="geometry" />
        </mxCell>
        <mxCell id="jCh2vAqL-qauHgvOBUfU-56" style="edgeStyle=none;curved=1;rounded=0;orthogonalLoop=1;jettySize=auto;html=1;fontSize=12;startSize=8;endSize=8;" edge="1" parent="1" source="jCh2vAqL-qauHgvOBUfU-47" target="jCh2vAqL-qauHgvOBUfU-2">
          <mxGeometry relative="1" as="geometry" />
        </mxCell>
        <mxCell id="jCh2vAqL-qauHgvOBUfU-47" value="Student" style="swimlane;fontStyle=1;align=center;verticalAlign=top;childLayout=stackLayout;horizontal=1;startSize=26;horizontalStack=0;resizeParent=1;resizeParentMax=0;resizeLast=0;collapsible=1;marginBottom=0;whiteSpace=wrap;html=1;fontSize=16;" vertex="1" parent="1">
          <mxGeometry x="-211" y="-203" width="316" height="294" as="geometry" />
        </mxCell>
        <mxCell id="jCh2vAqL-qauHgvOBUfU-48" value="+ &lt;b&gt;Student&lt;/b&gt;: ArrayList&amp;lt;AssistiveTechnology&amp;gt;&lt;br&gt;+ &lt;b&gt;Has&lt;/b&gt;: ArrayList&amp;lt;VisuallyImparied&amp;gt;&lt;br&gt;+ &lt;b&gt;demographics: &lt;/b&gt;address, dob, name, age&lt;br&gt;&lt;b&gt;+ courses taken: &lt;/b&gt;CS6795,CS6262" style="text;strokeColor=none;fillColor=none;align=left;verticalAlign=top;spacingLeft=4;spacingRight=4;overflow=hidden;rotatable=0;points=[[0,0.5],[1,0.5]];portConstraint=eastwest;whiteSpace=wrap;html=1;fontSize=16;" vertex="1" parent="jCh2vAqL-qauHgvOBUfU-47">
          <mxGeometry y="26" width="316" height="139" as="geometry" />
        </mxCell>
        <mxCell id="jCh2vAqL-qauHgvOBUfU-49" value="" style="line;strokeWidth=1;fillColor=none;align=left;verticalAlign=middle;spacingTop=-1;spacingLeft=3;spacingRight=3;rotatable=0;labelPosition=right;points=[];portConstraint=eastwest;strokeColor=inherit;fontSize=16;" vertex="1" parent="jCh2vAqL-qauHgvOBUfU-47">
          <mxGeometry y="165" width="316" height="8" as="geometry" />
        </mxCell>
        <mxCell id="jCh2vAqL-qauHgvOBUfU-50" value="+ method: getDisableStudentsDemographics()&lt;br&gt;getDisableStudentsAndCourses()&lt;br&gt;getDisableStudent(student)" style="text;strokeColor=none;fillColor=none;align=left;verticalAlign=top;spacingLeft=4;spacingRight=4;overflow=hidden;rotatable=0;points=[[0,0.5],[1,0.5]];portConstraint=eastwest;whiteSpace=wrap;html=1;fontSize=16;" vertex="1" parent="jCh2vAqL-qauHgvOBUfU-47">
          <mxGeometry y="173" width="316" height="121" as="geometry" />
        </mxCell>
      </root>
    </mxGraphModel>
  </diagram>
</mxfile>
